<svg width="48" height="48" viewBox="0 0 48 48" fill="none" xmlns="http://www.w3.org/2000/svg">
<path d="M24 4C12.972 4 4 11.178 4 20C4 25.816 7.796 31.03 14 33.868V44L24.68 35.99C35.394 35.704 44 28.64 44 20C44 11.178 35.028 4 24 4ZM24 32H23.334L18 36V31.166L16.718 30.672C11.34 28.602 8 24.512 8 20C8 13.382 15.178 8 24 8C32.822 8 40 13.382 40 20C40 26.618 32.822 32 24 32Z" fill="black"/>
<path d="M17.0061 23.178V25.974H19.8021L27.5421 18.246L24.7441 15.45L17.0061 23.178ZM28.8601 16.928L26.0641 14.132L28.1981 11.998L30.9941 14.794L28.8601 16.928Z" fill="black"/>
</svg>
